<svg width="169" height="31" viewBox="0 0 169 31" fill="none" xmlns="http://www.w3.org/2000/svg"><g clip-path="url(#clip0_265_1319)"><path d="M99.1865.02758L87.0487 30.3657h1.6052s3.83-9.5979 3.999-9.9564h13.0111c.141.3585 3.942 9.9564 3.942 9.9564h1.634L99.1865.02758zM93.1598 19.0578c.3098-.7446 5.5197-13.95549 6.0548-15.25175.5069 1.29626 5.6604 14.50715 5.9704 15.25175H93.1598zM32.3299 30.2829h-1.5207s-2.5627-22.78112-2.788-24.76689C27.1763 7.3363 16.0805 31 16.0805 31S5.09732 7.3363 4.2243 5.48843C3.999 7.50178 1.52075 30.2829 1.52075 30.2829H0L3.26679.19306S15.5454 26.4217 16.0805 27.5801C16.6156 26.4493 29.035.16548 29.035.16548l3.2949 30.11742zM52.1841 0C43.8764 0 36.864 7.0605 36.864 15.3897c0 8.798 6.5899 15.4172 15.3201 15.4448h.0564c3.9145 0 7.8008-1.5996 10.617-4.3576 2.957-2.8959 4.6186-6.8399 4.6186-11.0872C67.4479 7.0605 60.4638 0 52.1841 0zm.0564 29.4555c-7.5756 0-13.7712-6.2882-13.7712-14.0107 0-3.7233 1.4362-7.25352 4.0834-9.92879 2.422-2.4822 5.6043-3.91637 8.9555-4.10943h.7323c3.6329 0 7.0686 1.46175 9.6595 4.13701 2.6191 2.67527 4.0553 6.20551 4.0553 9.95641 0 3.6957-1.4362 7.1984-4.0553 9.8461-2.5909 2.6477-6.0266 4.1094-9.6595 4.1094zM88.9074.413701L78.6001 30.9724 68.0675.413701h1.6334S78.065 24.8221 78.6001 26.4493c.535-1.6272 8.7865-26.035599 8.7865-26.035599h1.5208zM130.897 4.55071C128.193 1.7927 124.56.413701 120.139.413701h-5.689V30.3657h5.689c4.365 0 7.942-1.379 10.673-4.0819h.057l.084-.0827c2.732-2.7856 4.309-6.6744 4.309-10.7287 0-4.3301-1.521-8.08094-4.365-10.92169zM120.054 29.0142h-4.167V1.76512h4.167c7.998 0 13.603 5.62634 13.603 13.65218 0 9.3496-7.041 13.5969-13.603 13.5969zM153.708 0c-8.308 0-15.32 7.0605-15.32 15.3897 0 8.798 6.59 15.4172 15.32 15.4448h.056c3.915 0 7.801-1.5996 10.617-4.3576C167.338 23.581 169 19.637 169 15.3897 168.972 7.0605 161.988 0 153.708 0zm9.716 25.3461c-2.619 2.6477-6.055 4.1094-9.66 4.1094-7.575 0-13.771-6.2882-13.771-14.0107 0-3.7233 1.436-7.25352 4.084-9.92879 2.422-2.4822 5.576-3.91637 8.955-4.10943h.732c3.633 0 7.069 1.46175 9.66 4.13701 2.619 2.67527 4.055 6.20551 4.055 9.95641-.028 3.6957-1.464 7.1708-4.055 9.8461z" fill="#000"/></g><defs><clipPath id="clip0_265_1319"><path fill="#fff" d="M0 0h169v31H0z"/></clipPath></defs></svg>