<svg width="221" height="96" viewBox="0 0 221 96" fill="none" xmlns="http://www.w3.org/2000/svg"><g clip-path="url(#clip0_8_2)" fill="#000"><path d="M61.0383 24.2195c.1269.0355.2515.0745.3796.1053 1.4992.3551 2.5549 1.7139 2.4884 3.2088-.0699 1.5789-1.1801 2.8394-2.715 3.0821-2.0436.3243-3.8726-1.3718-3.6923-3.4242.1281-1.4594 1.1434-2.5944 2.5869-2.8963.0913-.0189.1803-.0497.2692-.0757h.6832zM13.107 40.8978c.0901-.1267.1731-.2592.2728-.3776 1.2311-1.4523 2.6746-2.6548 4.3363-3.584.7342-.4107 1.5064-.7563 2.2607-1.1315.1922-.0959.3843-.1917.5634-.3207-.9144.2012-1.7933.5054-2.6414.8877-.8504.3835-1.6819.8072-2.5288 1.2049 1.5799-1.347 3.3591-2.3578 5.3019-3.0975-.5266.071-1.0295.2249-1.5289.3882-2.0246.6628-3.8334 1.7139-5.4869 3.0442-.9382.7552-1.8396 1.5506-2.6699 2.4241-.0486.0509-.1032.0958-.1708.1278.9062-1.5008 2.2607-2.6122 3.4018-3.9118-1.6831 1.1658-3.1491 2.5802-4.65784 3.9556.06286-.0888.12098-.1811.18977-.2651 1.15167-1.4109 2.36387-2.7673 3.76707-3.9355 2.5216-2.0986 5.4015-3.4491 8.6407-4.003 1.7827-.3042 3.582-.3456 5.3861-.1976 2.4066.1976 4.7005.8084 6.871 1.8653 3.8608 1.8784 6.813 4.7131 8.9135 8.4427 1.1707 2.0784 1.8942 4.3024 2.2335 6.6578.2241 1.5611.2917 3.1294.2004 4.7001-.3523 6.0411-2.9368 10.94-7.6598 14.7134-2.2987 1.8357-4.8867 3.1034-7.7725 3.7307-.7662.1669-1.5514.2509-2.3283.3728-.3463.0545-.6915.1101-1.0378.1598-.1115.0166-.2266.0237-.3393.0237-.797.0023-1.5929.0035-2.3899-.0012-.1495-.0012-.2989-.0355-.4484-.0545-.3107-.0378-.6203-.0793-.9311-.1112-2.2678-.2356-4.4099-.896-6.4666-1.8666-4.1229-1.9458-7.11775-5.0125-9.12344-9.077-.99276-2.011-1.65935-4.1202-1.96892-6.3394-.09133-.6546-.15775-1.3162-.18147-1.9766-.04626-1.3044-.06998-2.6099-.07473-3.9154-.01186-3.6716-.00712-7.3431-.01186-11.0146-.00119-1.5233-.0083-3.0466-.01186-4.5699-.00356-2.9236-.00949-5.8471-.01542-8.7717 0-.1302.00949-.2593.01542-.4072h4.17625c.00356.1373.00949.2663.00949.3953-.00119 4.5238-.00475 9.0475-.00475 13.5701 0 3.4158 0 6.8329.00712 10.2488.00237 1.1067-.00119 2.2145.04626 3.32.11386 2.6714.68912 5.2457 1.74001 7.7065 1.0141 2.3719 2.6153 4.2834 4.6827 5.8162 1.9559 1.4499 4.1158 2.4394 6.5188 2.8797 1.6321.2995 3.2748.3586 4.9282.2095 1.995-.1787 3.894-.6948 5.685-1.5931 3.7338-1.8725 6.8699-5.3984 8.2256-9.2475.4139-1.1742.6654-2.3838.7947-3.6207.0889-.8581.1281-1.7174.1032-2.5791-.0854-2.9531-.8908-5.6907-2.5312-8.1574-1.759-2.6453-4.0256-4.7415-6.8995-6.1441-1.6072-.7847-3.308-1.251-5.0836-1.4593-1.1802-.1385-2.3639-.1835-3.5488-.0936-2.7482.2095-5.29 1.031-7.578 2.5839-1.0129.6876-1.9582 1.4617-2.8976 2.2441-.0771.0639-.1566.1254-.2361.1882-.0166-.0119-.0308-.0237-.0462-.0367zM81.298 52.6497c-4.4312-6.5453-8.8447-13.0646-13.2842-19.623.1257-.0142.2051-.0296.2846-.0296 1.3652-.0011 2.7316.0036 4.0968-.0059.2028-.0012.306.0876.408.2379 2.9261 4.3178 5.8546 8.6344 8.7831 12.951.6428.9481 1.2857 1.8962 1.9297 2.8431.057.0852.1198.1668.1969.2746.0724-.0995.1293-.1729.1815-.2498 3.5215-5.2185 7.0419-10.437 10.5646-15.6544.3214-.4758.1554-.3929.7437-.3953 1.2323-.0047 2.4659-.0012 3.6982-.0012h.3784c-2.2145 3.3189-4.3993 6.5773-6.5805 9.8394-2.1777 3.2561-4.3565 6.5133-6.5449 9.7848 4.5475 6.7063 9.0879 13.4008 13.6532 20.1343-.1163.0095-.1862.0202-.2574.0202-1.4411.0011-2.8834-.0036-4.3245.0059-.2088.0012-.3214-.0781-.4317-.2427-1.3664-2.0476-2.7387-4.0905-4.1099-6.1346-2.2358-3.333-4.4727-6.6661-6.7097-9.9991-.051-.0757-.108-.1479-.1839-.2509-.0771.1041-.1387.1834-.1957.2663-3.6401 5.3665-7.2802 10.7329-10.9144 16.1041-.1258.1859-.2551.2592-.4804.2581-1.3937-.0107-2.7885-.0048-4.1822-.006-.0913 0-.1827-.0071-.3274-.0142 4.5523-6.7252 9.0737-13.4102 13.6081-20.113zM53.7415 72.7639h-3.805c-.0581-.2214-.083-47.5088-.0296-48.0923.1992-.0616 3.4906-.0746 3.8334-.013.0012 16.0236.0012 32.0496.0012 48.1053zM62.5008 72.764h-3.7919c-.0617-.206-.0866-39.2283-.0273-39.71.2016-.0722 3.4907-.0899 3.8133-.0201.0593.2201.0712 39.4046.0059 39.7301z"/></g><defs><clipPath id="clip0_8_2"><path fill="#fff" transform="translate(5 24.2195)" d="M0 0h94.8095v48.561H0z"/></clipPath></defs></svg>