<svg width="221" height="96" viewBox="0 0 221 96" fill="none" xmlns="http://www.w3.org/2000/svg"><path fill-rule="evenodd" clip-rule="evenodd" d="M109.12 48.5974c0 9.1073 7.378 16.5213 16.44 16.5213 9.063 0 16.44-7.414 16.44-16.5213s-7.377-16.5212-16.44-16.5212c-9.07 0-16.44 7.4139-16.44 16.5212zm6.118 0c0-5.7206 4.63-10.3734 10.322-10.3734 5.693 0 10.322 4.6528 10.322 10.3734 0 5.7207-4.629 10.3735-10.322 10.3735-5.692 0-10.322-4.6528-10.322-10.3735zM93.6066 40.0852l-.0076-.1754v25.2547h6.1175V39.8411v-.061-.0229c0-.2288.0379-1.884 1.1535-2.6162L97.5078 32c-3.3168 2.1891-4.0075 6.1173-3.9012 8.0852zM39.9079 46.9497c-3.5141 6.1325-6.8233 11.9295-11.5898 11.9295-4.7589 0-8.0757-5.797-11.5899-11.9295C12.7359 39.9552 8.20473 32.0378 0 32.0378v6.1402c4.66023 0 7.94667 5.7435 11.4305 11.8303 4.0226 7.0402 8.5918 15.011 16.8876 15.011 8.3034 0 12.8649-7.9784 16.8876-15.011 3.4838-6.0791 6.7702-11.8303 11.4381-11.8303 4.6602 0 7.9466 5.7435 11.4304 11.8303 4.0227 7.0402 8.5918 15.011 16.8876 15.011v-6.1478c-4.7589 0-8.0757-5.7969-11.5898-11.9294-3.9999-6.9869-8.5311-14.9043-16.7282-14.9043-8.2048 0-12.736 7.9174-16.7359 14.9119z" fill="#000"/><path fill-rule="evenodd" clip-rule="evenodd" d="M61.1598 54.3485c0 2.5095-2.0266 4.546-4.5236 4.546-2.4971 0-4.5237-2.0365-4.5237-4.546s2.0266-4.546 4.5237-4.546c2.5046 0 4.5236 2.0365 4.5236 4.546z" fill="#000"/></svg>