<svg width="221" height="96" viewBox="0 0 221 96" fill="none" xmlns="http://www.w3.org/2000/svg"><path d="M92.4572 49.5542c-.3586-.2239-.7182-.4469-1.0758-.6718-.9773-.6148-1.9319-1.2708-2.9347-1.8395-3.1387-1.7806-6.4448-3.1977-9.9115-4.1946-2.2599-.6501-4.5563-1.1913-6.8625-1.6578-1.6855-.3408-3.4125-.4753-5.1197-.7101-3.2027-.44-6.4281-.3584-9.6386-.2563-2.3486.0756-4.6912.4459-7.028.7533-3.3169.436-6.5443 1.2649-9.7095 2.3443-2.7131.9251-5.3266 2.0772-7.8447 3.4403-2.1673 1.1737-4.1937 2.5555-6.1058 4.1161-2.1023 1.7167-3.8903 3.7143-5.4124 5.9378-1.4196 2.0733-2.515 4.3282-3.0559 6.7943-.2571 1.1726-.3428 2.3895-.4246 3.5916-.1359 2.0143.0739 4.0011.6827 5.9339.5842 1.8552 1.2975 3.6525 2.4176 5.2651.0995.1424.1103.3457.1625.5205-.0384.0266-.0778.0541-.1162.0806-.3813-.3104-.8079-.5795-1.1369-.938-1.4048-1.5281-2.9298-2.9767-4.1317-4.6532-1.7968-2.5064-3.0155-5.3358-3.4696-8.4089-.2167-1.4692-.3202-2.9934-.1941-4.4686.2739-3.2203 1.3329-6.2138 3.0648-8.9637.8531-1.3544 1.8195-2.6115 2.9081-3.788 2.2097-2.3866 4.772-4.3203 7.5205-6.039 2.9161-1.8238 6.032-3.1968 9.28-4.3155 2.5969-.8947 5.2469-1.5812 7.9304-2.1233 1.6225-.328 3.2766-.5156 4.9237-.7012 1.3526-.1522 2.7151-.2416 4.0755-.2956 1.7477-.0688 3.5002-.1375 5.2469-.0894 1.7318.0481 3.4627.2141 5.1897.3781 2.8372.2711 5.6399.7847 8.3924 1.4968 2.0737.5362 4.1247 1.2001 6.1275 1.9622 1.8422.7012 3.6391 1.5439 5.3956 2.4415 2.2205 1.1344 4.3129 2.4897 6.2409 4.0797.7979.6571 1.6205 1.2886 2.3732 1.9947.5635.5294 1.0393 1.154 1.5397 1.7482.2956.3516.5625.7267.8413 1.0911-.0463.0491-.0936.0963-.1408.1444z" fill="#000"/><path d="M39.6173 29.5663c.2128-.1228.4068-.1876.5388-.3172 1.0177-.9979 2.0176-2.0143 3.0323-3.0141 2.3761-2.3434 4.7582-4.6818 7.1403-7.0192.1073-.1051.2433-.1797.3655-.2691.0384.0246.0768.0491.1152.0737-.0424.1375-.064.2848-.129.4095-1.595 3.0789-3.1958 6.1549-4.7927 9.2338-.6217 1.1972-1.2393 2.3974-1.8541 3.5975-.2531.494-.6836.6973-1.2068.7602-2.3002.2789-4.5552.7817-6.7747 1.426-1.7979.5225-3.5899 1.0813-5.3464 1.7275-2.1111.7759-4.173 1.6883-6.0852 2.8845-1.591.9959-3.1593 2.031-4.703 3.0976-.7408.5117-1.4393 1.099-2.0915 1.7216-.925.884-1.786 1.8327-2.6795 2.749-.2759.2828-.6197.3968-1.0157.331-1.7595-.2917-3.5179-.5952-5.28034-.8702-1.20975-.1886-2.42738-.3241-3.63811-.5048-1.12798-.1689-2.25104-.3762-3.37803-.549-.44627-.0688-.904359-.0658-1.347671-.1483-.175354-.0324-.325095-.2062-.485672-.3153.150725-.0874.292585-.2288.453163-.2533 1.16049-.1788 2.32492-.33 3.4864-.499 1.13094-.165 2.2599-.3368 3.38887-.5126.96937-.1513 1.93579-.3123 2.90419-.4675 1.2068-.1935 2.4126-.387 3.6204-.5765.2699-.0422.5467-.0472.8098-.1149.1349-.0344.2433-.168.3645-.2564-.1094-.107-.201-.2514-.3311-.3172-2.2441-1.1235-4.4941-2.2372-6.74124-3.3539-1.97717-.9821-3.95434-1.9632-5.9256-2.9562-.19309-.0972-.3448-.273-.51621-.4124.02857-.055.05713-.1091.0857-.1641 4.99957.7848 9.99815 1.5704 14.99775 2.3552.0374-.0334.0739-.0668.1113-.1002-.1291-.2181-.2207-.4744-.395-.6482-.5744-.5765-1.1921-1.1118-1.7703-1.6853-2.3722-2.3542-4.7346-4.7191-7.10583-7.0752-.39208-.3889-.82061-.7405-1.21467-1.1274-.12117-.1199-.18323-.2996-.2719-.4508.04236-.0472.08571-.0943.12807-.1415 4.56813 2.3257 9.13613 4.6513 13.70323 6.977.0384-.0305.0759-.0599.1143-.0904-.0325-.1768-.0256-.3742-.1054-.5274-1.3349-2.5829-2.6816-5.161-4.0243-7.74-.8452-1.6234-1.6925-3.2469-2.5318-4.8742-.0827-.1611-.1153-.3477-.1704-.5235.0364-.0265.0729-.053.1103-.0796.2305.1847.4808.3497.6896.5569 3.2293 3.2115 6.4536 6.4289 9.68 9.6444.0926.0923.1733.2062.2837.27.0926.0531.2551.1002.3231.055.0857-.0559.1616-.218.1468-.3201-.1133-.7759-.2473-1.5478-.3803-2.3208-.1921-1.1206-.393-2.2402-.5822-3.3617-.2985-1.7698-.596-3.5396-.8807-5.3113-.1783-1.1088-.3349-2.2206-.4965-3.3313-.0158-.1081.0079-.221.1221-.4037.1537.2013.3439.385.4562.6079 1.256 2.4828 2.4914 4.9754 3.7504 7.4562.727 1.432 1.4895 2.8462 2.2333 4.2693.2079.3977.4078.8004.6118 1.2001.0689-.0108.1369-.0216.2059-.0324.066-.1993.1625-.3948.194-.6.2158-1.428.4128-2.859.6256-4.287.1803-1.205.3684-2.4091.5625-3.6122.2088-1.2974.4335-2.5928.6384-3.8911.0975-.6188.1625-1.2434.2472-1.8641.0197-.1414.0424-.2877.1015-.4144.0473-.1022.1507-.1778.2286-.2652.0847.1021.2265.1945.2453.3074.1182.712.2049 1.43.3103 2.1449.1379.937.2788 1.8729.4246 2.8079.1487.9497.3063 1.8994.46 2.8481.1813 1.1236.3665 2.2471.5419 3.3716.1536.9831.2916 1.9682.4462 2.9513.0256.1611.1044.3123.1586.4685.1399-.114.336-.1994.4128-.3458.7723-1.482 1.526-2.9728 2.2826-4.4627 1.3526-2.6645 2.7051-5.3309 4.0587-7.9973.0148-.0285.0325-.058.0552-.0806.1448-.1463.2906-.2907.4364-.436.0266.1964.0995.4007.0709.5892-.2531 1.7129-.5063 3.4266-.793 5.1345-.3044 1.816-.6581 3.624-.9615 5.44-.196 1.1716-.3408 2.3511-.5054 3.5267-.0078.0609.0148.1267.0375.2986zM160.092 63.6485h-9.747c-.683 0-.872.1886-.778.8702.23 1.6489.669 3.2272 1.664 4.6051 1.244 1.7236 2.83 2.9434 4.933 3.4718 2.148.5401 4.214.3201 6.254-.4852 1.145-.4518 2.169-1.0892 3.005-1.9682.618-.6482 1.119-1.4093 1.654-2.1331.446-.603.563-.7228 1.2-.3801.453.2436.907.4852 1.36.7307.366.1984.52.4449.278.8633-.977 1.6971-2.171 3.1919-3.786 4.3449-1.3.9281-2.719 1.5812-4.27 1.9053-1.475.3083-2.964.4547-4.489.27-1.564-.1885-3.074-.5087-4.485-1.207-1.69-.8358-3.032-2.087-4.13-3.6004-1.047-1.4417-1.794-3.0259-2.157-4.776-.283-1.3681-.33-2.7391-.211-4.1416.142-1.6686.626-3.2125 1.416-4.6562 1.668-3.0505 4.063-5.2484 7.531-6.1048 1.524-.3762 3.06-.4194 4.63-.2966 1.472.1159 2.866.4468 4.157 1.1176.875.4547 1.694 1.0332 2.482 1.6303 1.447 1.0951 2.444 2.5574 3.207 4.1799.556 1.1815.856 2.4425 1.018 3.734.052.4164.085.8368.097 1.2551.016.5628-.159.7435-.742.7671-.474.0186-.951.0039-1.427.0039h-8.664zm-1.397-2.7489c2.707 0 5.415.0009 8.122-.001.516-.001.635-.168.477-.6541-.099-.3035-.194-.6089-.309-.9065-.748-1.9407-2.045-3.3981-3.9-4.3517-1.965-1.0106-4.044-1.3475-6.223-.9517-1.515.275-2.882.9163-4.045 1.9171-1.287 1.1088-2.133 2.525-2.665 4.1317-.221.6679-.121.8162.567.8162 2.659.0009 5.317.0009 7.976 0zM59.4029 63.6485h-9.6957c-.8453 0-.9625.1355-.7793.9742.201.9183.3724 1.8474.6512 2.7421.3192 1.0243.9506 1.8758 1.6678 2.6812 1.0433 1.1726 2.2993 2.0005 3.782 2.4729 1.3644.4341 2.7672.442 4.1838.2691 1.8206-.2229 3.4618-.9016 4.8617-2.0447.728-.5942 1.2698-1.4182 1.8796-2.1519.2138-.2573.3714-.5598.5695-.8298.2374-.3241.5428-.3801.8984-.1916.5113.2701 1.0354.5196 1.5348.8093.4039.2338.3961.5834.1626.9419-.4197.6442-.8078 1.314-1.2807 1.917-.8226 1.0499-1.8018 1.9387-2.9347 2.6616-1.457.929-3.0234 1.5488-4.7484 1.7216-.9191.0923-1.8481.2308-2.7643.1817-2.5653-.1375-4.9838-.7533-7.0289-2.4288-2.1466-1.7589-3.6096-3.9697-4.3465-6.6292-.3989-1.4388-.5664-2.9316-.4206-4.4225.2443-2.4886 1.0866-4.7632 2.6333-6.7579 1.2353-1.592 2.7061-2.8903 4.5769-3.7026 1.1122-.4832 2.253-.8406 3.4795-.877.7645-.0226 1.5319-.1188 2.2934-.0864 2.8215.1198 5.3473.9811 7.4614 2.9395 1.1487 1.0646 2.1299 2.2402 2.8254 3.6338.6611 1.3248 1.1241 2.7204 1.2383 4.2113.0296.3859.0838.7709.0926 1.1579.0148.6197-.1615.7965-.8009.8063-.7871.0118-1.5752.0029-2.3623.0029-2.5437-.0019-5.0863-.0019-7.6299-.0019zm-1.4354-2.749c2.7062 0 5.4124.001 8.1195-.0009.4808 0 .6197-.2024.4778-.6659-.0423-.1375-.0679-.2809-.1133-.4164-.528-1.5822-1.3742-2.9768-2.7061-3.9884-2.2826-1.7334-4.9001-2.2471-7.7009-1.7864-1.5693.2582-2.9495.9644-4.1218 2.0575-1.1703 1.0911-1.9436 2.4248-2.5042 3.9058-.1842.4862-.1172.9213.5773.9114 2.6579-.0383 5.3148-.0157 7.9717-.0167zM77.9696 55.2859c.2335-.1591.4246-.2347.5369-.3732 1.5664-1.919 3.5052-3.293 5.9483-3.7998 2.1417-.4449 4.2716-.3702 6.2872.6492 1.9042.9635 3.2105 2.4681 3.9563 4.4323.4256 1.1225.6305 2.303.7231 3.5169.3733 4.8772.0886 9.7583.1793 14.6375.0108.5873-.198.7817-.7881.7856-.5084.003-1.0177.001-1.526.001-.7044 0-.8335-.1257-.8335-.8122 0-3.8774.0247-7.7547-.0137-11.6311-.0128-1.3387-.0789-2.694-.3074-4.009-.3241-1.867-1.1841-3.4856-2.9998-4.3292-1.1939-.5549-2.4756-.6963-3.8223-.5441-1.853.2092-3.3889 1.0126-4.6814 2.2658-1.2954 1.2561-2.1555 2.8009-2.4431 4.6012-.134.8426-.1882 1.7049-.2 2.5584-.0512 3.7065-.0729 7.4139-.1064 11.1214-.0049.5942-.1921.7778-.7832.7778-.5743.001-1.1487-.0029-1.723.001-.4482.003-.6453-.22-.6453-.659.002-7.4434.001-14.8868.003-22.3303 0-.4734.199-.6649.6817-.6678.5576-.004 1.1162-.001 1.6738-.001.6157.001.792.1797.794.8171.002.8014-.004 1.6028.0039 2.4052.001.164.0473.329.0857.5863zM36.1249 75.8445c-2.3337-.1247-4.3414-.7827-6.0359-2.2657-.2315-.2024-.4827-.384-.6965-.6031-.3655-.3761-.3467-.7248.005-1.095.3694-.3879.7211-.7936 1.0925-1.1795.3714-.385.5645-.384.9674.0255.8639.88 1.8638 1.5439 3.0568 1.8699 2.2452.6139 4.2145-.1001 5.3809-2.0732.6905-1.1687.46-2.8786-.5103-3.8941-.9123-.9546-2.057-1.5389-3.1623-2.1999-1.3211-.7886-2.6875-1.5223-3.9219-2.4327-1.1959-.8829-1.9269-2.1449-2.1761-3.6446-.2512-1.5095-.0857-2.9562.6886-4.2948 1.0196-1.7629 2.5545-2.7499 4.5759-3.0829 2.3535-.3869 4.3435.4214 6.2113 1.7089.4246.2927.8147.6374 1.1989.9821.332.2976.3261.5991.0158.9144-.3793.385-.7694.7601-1.1457 1.1471-.3044.3123-.5832.3162-.9172.0226-.9979-.8761-2.0855-1.6038-3.4243-1.8572-1.9841-.3752-3.842.5735-4.3996 2.5545-.268.9516.0739 1.8748.7438 2.6428.79.9055 1.7899 1.538 2.8303 2.091 1.5338.8151 3.0874 1.5988 4.4281 2.7116 1.3132 1.0891 2.1063 2.4867 2.2964 4.2123.2551 2.3138-.5221 4.2417-2.1919 5.8052-1.1024 1.0322-2.4333 1.6578-3.9613 1.816-.3527.0353-.7043.0874-.9487.1188zM99.7588 51.4763c.2792 0 .5612.0275.8362-.0059.572-.0687.867.2652 1.072.7091.915 1.978 1.815 3.9628 2.73 5.9408 1.413 3.0544 2.835 6.1048 4.252 9.1592.093.2023.144.4272.254.6197.08.1395.208.3045.345.3369.085.0206.272-.1581.334-.2858.435-.8927.86-1.7923 1.27-2.6969.549-1.2099 1.073-2.4307 1.625-3.6397 1.376-3.018 2.76-6.0312 4.144-9.0453.101-.219.179-.4714.343-.6325.199-.1954.469-.4164.724-.438.701-.0599 1.41-.0265 2.115-.0186.455.0049.587.1797.417.602-.227.5637-.49 1.1137-.746 1.6657-1.357 2.9394-2.721 5.875-4.074 8.8164-1.186 2.5761-2.36 5.1571-3.543 7.7342-.656 1.427-1.308 2.8569-1.998 4.2682-.11.2249-.4.4931-.613.4989-.19.0059-.464-.2887-.573-.5126-.925-1.921-1.828-3.8529-2.725-5.7886-1.326-2.8648-2.635-5.7375-3.961-8.6023-.834-1.8042-1.687-3.6005-2.5267-5.4017-.4059-.8711-.8029-1.7472-1.2009-2.6232-.1931-.4243-.0522-.6462.4177-.657.3596-.0089.7201-.003 1.0817-.003zM134.005 58.7902v15.4113c0 .7788-.155.932-.939.933-.508 0-1.018-.0187-1.526.0059-.468.0216-.632-.2397-.683-.6374-.013-.0963-.002-.1964-.002-.2946V43.2875c0-.7857.152-.9399.932-.9399.459 0 .919-.001 1.378 0 .653.002.839.1846.84.8348.001 3.5336.001 7.0673.001 10.6009-.001 1.6696-.001 3.3382-.001 5.0069zM142.079 58.7901v15.4104c0 .8073-.125.933-.924.933h-1.329c-.726-.001-.897-.167-.897-.8761-.001-3.9422 0-7.8853 0-11.8275V43.3877c0-.9154.124-1.0401 1.031-1.0401.427 0 .853-.001 1.28 0 .652.002.838.1856.838.8358.001 3.6642 0 7.3285 0 10.9938.001 1.5379.001 3.0759.001 4.6129zM122.78 63.2508v-10.984c0-.6501.143-.7896.805-.7906.541-.001 1.082-.0019 1.624 0 .547.002.721.1758.721.7258.001 6.0312 0 12.0633 0 18.0945 0 1.373.001 2.746-.001 4.119-.001.5441-.176.7149-.731.7159-.574.002-1.148.003-1.722 0-.519-.0029-.696-.1797-.696-.7012V63.2508zM1.44019 54.2575c.24924-.164.4837-.3555.74968-.4871 3.54945-1.757 7.10284-3.5071 10.66013-5.2494.2079-.1021.4581-.1188.6887-.1758-.0838.2269-.1419.4685-.2562.6796-.5684 1.0558-1.2117 2.0772-1.7112 3.1644-.4009.8721-1.1348.9379-1.89734 1.0548-1.35062.2082-2.70026.4194-4.05088.6305-.95362.1493-1.90624.2956-2.85887.4508-.33199.054-.65906.1405-.99105.1866-.0926.0128-.19801-.0648-.29751-.1002-.01182-.052-.02364-.1031-.03546-.1542zM57.9221 26.1101c-.8926.8436-1.795 1.6775-2.6737 2.5348-1.0777 1.0509-2.1387 2.1185-3.1988 3.188-.3369.3398-.7112.5097-1.2048.5117-1.1733.0049-2.3486.0334-3.5199.0992-.6226.0343-1.2393.1777-1.8609.2445-.1724.0187-.3557-.0628-.534-.0982-.0128-.0462-.0266-.0923-.0394-.1395.2355-.1679.4532-.3712.7093-.4989 1.5674-.7837 3.1456-1.5448 4.7149-2.3246 1.0649-.5294 2.121-1.0764 3.18-1.6176 1.3024-.6668 2.6018-1.3386 3.9071-2.0005.134-.0678.2975-.0776.4473-.115.0236.0717.0482.1434.0729.2161zM126.915 44.3521c.083 1.0204-.916 2.4906-2.542 2.5034-1.631.0127-2.624-1.4654-2.589-2.5182.046-1.3985 1.164-2.579 2.529-2.579 1.474.001 2.602 1.1255 2.602 2.5938zM166.551 47.151c.047-.8426.826-1.8503 1.755-2.2235 1.147-.4616 2.364-.0638 3.081.9723 1.016 1.4663.684 1.7148-.388 2.9415-.629.7199-1.573 1.0047-2.643.5529-.749-.3162-1.195-.8495-1.601-1.4643-.14-.2122-.14-.5166-.204-.7789zm2.312 2.0124c1.279.1748 1.609-.77 2.317-1.042.035-.0138.03-.1198.051-.1797.318-.9056.144-1.6549-.594-2.3218-.967-.8731-2.642-.6963-3.24.4528-.887 1.699.318 2.912 1.466 3.0907zM5.89111 63.081c.30638-.2917.61768-.5794.91815-.877.78909-.7818 1.56834-1.5753 2.36728-2.3473.12216-.1188.33002-.1493.4975-.221.05615.1562.13201.3074.16353.4675.20293 1.0077-.22658 1.596-1.18216 1.9505-.70241.2603-1.34274.6836-2.01953 1.0155-.20196.0992-.43543.1326-.65413.1964-.03054-.0618-.06108-.1227-.09064-.1846z" fill="#000"/><path d="M170.295 48.3914c-.133-.1493-.252-.3133-.401-.4449-.202-.1778-.407-.4204-.646-.4734-.352-.0776-.427.3025-.578.5372-.075.1179-.185.2131-.279.3192-.073-.1237-.203-.2455-.208-.3722-.023-.5696-.011-1.1412-.009-1.7118.001-.3742.195-.5726.567-.5569.385.0157.793-.0059 1.145.1188.227.0806.497.3811.523.609.072.6236.025 1.262.025 1.8945-.047.0275-.093.054-.139.0805zm-1.077-2.4003c-.17.2612-.316.3938-.345.549-.055.3035.185.3752.406.3113.172-.0501.311-.2121.465-.3241-.14-.1434-.28-.2858-.526-.5362z" fill="#000"/></svg>