<svg width="221" height="96" viewBox="0 0 221 96" fill="none" xmlns="http://www.w3.org/2000/svg"><path d="M93 93H3v-.713c0-29.4847 0-58.9694.00126-88.4541 0-.83164 0-.8329.81026-.8329 29.48718.00126 58.97438.00126 88.46148.00252H93V93zM90.3459 5.7044H7.16738c-.25242 0-.50862.02651-.75598-.00631-.54017-.07193-.76987.0997-.72065.68273.05048.60575.01388 1.21907.01388 1.8286 0 27.10968.00253 54.21938-.00757 81.32898 0 .5364.03029.8178.7156.8178 27.72154-.019 55.44304-.0202 83.16584 0 .6714 0 .7812-.2032.7812-.8153-.0151-27.6359-.0126-55.2705-.0126-82.90642-.0012-.27133-.0012-.54139-.0012-.93008z" fill="#000"/><path d="M30.1156 49.2676h2.7677c.0101.217.0291.4391.0291.6612.0012 6.2443.0176 12.4885-.0101 18.7327-.0076 1.7062.6651 2.9884 2.0344 3.9626 2.9053 2.0684 8.2124 2.0659 11.1114-.0265 1.3718-.9893 2.0773-2.3132 2.0736-4.0282-.0127-6.1597-.0051-12.3206-.0051-18.4803v-.8089h2.846V68.8105c0 .8404-.0581 1.6847.005 2.5201.1502 1.9901 1.0122 2.8016 3.0025 2.9202 1.0362.0619 1.0362.0619 1.0362 1.0803v1.3616c-2.3752.8771-5.2288-.4644-6.5161-3.011-.4834.4442-.9403.9275-1.459 1.3313-1.4741 1.1447-3.1968 1.6621-5.0243 1.8299-2.976.2739-5.8396-.106-8.4383-1.6948-2.249-1.3756-3.4517-3.3758-3.4517-6.0499 0-6.3704-.0013-12.7409-.0013-19.1113v-.7193zM61.8733 41.9886v28.4158c0 .2524-.0012.5048.0013.7571.0214 1.9927.9642 2.9796 2.952 3.0931 1.0904.0631 1.0904.0631 1.0904 1.1446v.1262c0 1.4034 0 1.4084-1.4021 1.3415-.4203-.0202-.8406-.0517-1.2558-.1148-2.5153-.3799-3.8746-1.874-4.1396-4.5696-.0619-.626-.0644-1.2595-.0656-1.8904-.0038-9.1897.0012-18.3806-.0152-27.5703-.0013-.5654.1237-.7951.727-.7458.6651.053 1.3378.0126 2.1076.0126zM70.1008 42.0278h2.7728c.0126.2524.0366.4935.0366.7358.0025 9.2262.0013 18.4525.0051 27.6801 0 .3558.0227.7142.058 1.0688.1767 1.7756.9794 2.5631 2.7766 2.7347 1.2558.1199 1.2558.1199 1.2558 1.3705v1.103c-3.3799.9856-6.4417-1.0272-6.7875-4.4169-.0707-.6878-.1098-1.3831-.1111-2.0747-.0075-9.143-.005-18.2847-.005-27.4277-.0013-.2461-.0013-.4909-.0013-.7736zM19.1407 41.9936c.8834 0 1.6785-.0139 2.4724.0151.1161.0038.294.1994.3231.3319.053.241.0138.501.0138.7534 0 9.1266 0 18.2544.0013 27.381 0 .3142.0051.6322.0404.9439.2221 1.97 1.0412 2.7347 3.0201 2.8382.9883.0518.9883.0517.987 1.0512v.3155c.0013 1.2898.0013 1.2973-1.3126 1.2418-.4821-.0202-.9692-.0492-1.4425-.135-2.379-.4278-3.6903-1.8248-3.973-4.2365-.0808-.6877-.1237-1.3831-.125-2.0746-.0076-9.2326-.005-18.4639-.005-27.6965v-.7294z" fill="#000"/></svg>