<svg width="221" height="96" viewBox="0 0 221 96" fill="none" xmlns="http://www.w3.org/2000/svg"><g clip-path="url(#clip0_7_636)"><path d="M23.3464 68h-8.092c-.408-.0072-.7842-.2333-.9996-.594L5.16097 51.6506c-.26747-.4858-.19947-1.0967.16773-1.5055l1.09934-1.1545c.16773-.1755.3944-.2765.6324-.2789h9.39076c.3672 0 .6664.3126.6664.6998v3.5354c0 .3848-.3332.6999-.7004.6999h-3.6629c-.3627-.0072-.6687.2838-.6981.6638-.0023.1371.0317.2693.0997.3848l4.5288 7.8765c.1451.2597.4125.4208.7004.4208h1.1651c.1858.0048.3672-.0721.4986-.2092.1315-.1395.204-.3295.1995-.5243V29.6999c0-.3872.2992-.6999.6664-.6999h8.5589c.4103-.0024.7843.2429.9656.6301l9.1256 19.8512c.2018.4281.1632.9403-.0997 1.33l-1.666 2.6262c-.1609.2381-.4216.3824-.7004.3849h-9.2888c-.3672-.0025-.6641-.3151-.6664-.6999V49.551c.0023-.3872.2992-.6998.6664-.6998h5.1295c.3626.0048.6686-.2838.7004-.6638-.0023-.1203-.025-.2381-.068-.3488l-6.1291-13.3431c-.1564-.315-.4624-.5171-.8001-.5243h-.6007c-.5871.0048-1.0608.5027-1.0653 1.1208v32.2081c.034.3849-.2312.6662-.6302.6999zM53.008 40.5057h-5.9273c-.4012-.0048-.7253-.3536-.7276-.7865v-3.4319c-.0045-.2093.0725-.4113.2085-.5604.1383-.1491.3242-.2309.5191-.2261h16.9229c.4012.0048.7254.3536.7276.7865v3.4343c.0046.2093-.0725.4113-.2085.5604-.1383.1491-.3241.2309-.5191.2261h-5.9273v23.4587c-.0159.4281-.3332.7696-.7299.7864h-3.6085c-.3967-.0168-.714-.3583-.7299-.7864V40.5057zm16.3155-4.2184c-.0045-.2093.0703-.4113.204-.5604.1337-.1491.3173-.2309.5077-.2261h15.4202c.3921.0024.7094.3536.714.7865v3.4343c.0045.2093-.0703.4113-.204.5604-.1338.1491-.3174.2309-.5078.2261H74.249v6.8664h9.3636c.3876.0168.6981.3583.7117.7864v3.4705c-.0023.4329-.3196.784-.7117.7864H74.249v7.3305h11.2086c.3922.0025.7095.3536.714.7865v3.432c.0046.2092-.0702.4136-.204.5603-.1337.1492-.3173.2309-.5077.2261H70.0398c-.3922-.0024-.7095-.3535-.714-.7864V36.2873h-.0023zm26.1052-.1612c.0363-.3679.3445-.6445.7027-.6253h.6346c.2788 0 .5372.1612.6687.4161l8.5903 19.1537h.134l8.591-19.1537c.134-.2429.301-.4161.668-.4161h.635c.435 0 .669.2766.701.6253l4.612 27.2707c.134.5555-.202.9379-.702.9379h-3.543c-.352-.0144-.653-.2693-.737-.6253l-2.305-15.3705h-.134l-6.852 15.9598c-.066.2429-.301.4521-.669.4521h-.702c-.368 0-.535-.2092-.669-.4521l-6.9156-15.9598h-.1338l-2.2734 15.3705c-.0318.2766-.3672.6253-.7027.6253h-3.5088c-.5009 0-.8364-.3824-.7344-.9379l4.6444-27.2707zm30.5613.1588c-.004-.2093.07-.4113.206-.5604.136-.1491.322-.2285.515-.2261h9.042c4.735 0 8.613 4.1776 8.613 9.2498 0 5.178-3.88 9.3916-8.582 9.3916h-4.8v9.8222c-.016.4257-.331.7696-.723.7864h-3.55c-.399-.0048-.719-.3535-.723-.7864V36.2849h.002zM135.449 48.5c1.154 0 2.26-.4449 3.071-1.2362.812-.7912 1.265-1.8663 1.254-2.9798 0-2.2126-1.965-3.9058-4.327-3.9058h-4.862v8.1242h4.864V48.5zm25.752-12.9992c7.67 0 13.799 6.5297 13.799 14.6587s-6.129 14.5913-13.799 14.5913c-7.671 0-13.768-6.4623-13.768-14.5913 0-8.129 6.097-14.6587 13.768-14.6587zm0 24.375c5.029 0 9.205-4.3844 9.205-9.7139 0-5.3272-4.176-9.7861-9.205-9.7861-5.032 0-9.174 4.4589-9.174 9.7861 0 5.3271 4.142 9.7139 9.174 9.7139z" fill="#000"/></g><defs><clipPath id="clip0_7_636"><path fill="#fff" transform="translate(5 29)" d="M0 0h170v39H0z"/></clipPath></defs></svg>