<svg xmlns="http://www.w3.org/2000/svg" fill="none" viewBox="5 28.43 207.14 38.57">
<path d="M126.568 28.464l-14.876 37.7466h1.967s4.694-11.9416 4.901-12.3877h15.947c.173.4461 4.833 12.3877 4.833 12.3877h2.002L126.568 28.464zm-7.386 23.6774c.379-.9265 6.765-17.3634 7.421-18.9762.621 1.6128 6.938 18.0497 7.318 18.9762h-14.739zM44.6252 66.1077h-1.8639s-3.1411-28.3443-3.4172-30.815c-1.0355 2.2648-14.6352 31.7072-14.6352 31.7072S11.2473 37.5575 10.1773 35.2584c-.27614 2.505-3.31363 30.8493-3.31363 30.8493H4.99976l4.00396-37.4378S24.0531 61.3036 24.7089 62.7448c.6558-1.4069 15.8778-34.1092 15.8778-34.1092l4.0385 37.4721zm24.3344-37.678c-10.1825 0-18.7772 8.7847-18.7772 19.1478 0 10.9465 8.077 19.1822 18.7772 19.2165h.0691c4.7978 0 9.5612-1.9903 13.0129-5.4218 3.6242-3.6031 5.6607-8.5102 5.6607-13.7947-.0345-10.3631-8.5947-19.1478-18.7427-19.1478zm.0691 36.6485c-9.2851 0-16.8788-7.8238-16.8788-17.4321 0-4.6325 1.7604-9.0248 5.005-12.3534 2.9684-3.0884 6.8688-4.8727 10.9763-5.1129h.8975c4.4527 0 8.6637 1.8187 11.8393 5.1472 3.2101 3.3286 4.9704 7.7209 4.9704 12.3878 0 4.5982-1.7603 8.9562-4.9704 12.2505-3.1756 3.2942-7.3866 5.1129-11.8393 5.1129zM113.97 28.9444l-12.633 38.0211-12.9098-38.0211h2.002s10.2518 30.3689 10.9078 32.3935c.655-2.0246 10.769-32.3935 10.769-32.3935h1.864zm51.464 5.1473c-3.313-3.4315-7.766-5.1473-13.185-5.1473h-6.972v37.2662h6.972c5.35 0 9.734-1.7157 13.082-5.0786h.069l.104-.103c3.348-3.4658 5.281-8.3042 5.281-13.3485 0-5.3875-1.864-10.0544-5.351-13.5888zm-13.289 30.4375h-5.108V30.6259h5.108c9.803 0 16.672 7.0002 16.672 16.9859 0 11.6329-8.629 16.9174-16.672 16.9174zm41.248-36.0995c-10.182 0-18.777 8.7847-18.777 19.1478 0 10.9465 8.077 19.1822 18.777 19.2165h.069c4.798 0 9.561-1.9903 13.013-5.4218 3.624-3.6031 5.661-8.5102 5.661-13.7947-.035-10.3631-8.595-19.1478-18.743-19.1478zm11.909 31.5356c-3.211 3.2942-7.422 5.1129-11.84 5.1129-9.285 0-16.879-7.8238-16.879-17.4321 0-4.6325 1.761-9.0248 5.005-12.3534 2.969-3.0884 6.835-4.8727 10.977-5.1129h.897c4.453 0 8.664 1.8187 11.84 5.1472 3.21 3.3286 4.97 7.7209 4.97 12.3878-.035 4.5982-1.795 8.9219-4.97 12.2505z" fill="#000"/></svg>